<svg class="icon-svg" aria-hidden="true" aria-labelledby="title" version="1.1" role="img" width="140" height="40" viewBox="0 0 140 40">
<path fill="#fff" d="M0 0h140v40h-140z"></path>
<path d="M139.387 35.99c0 2.215-1.794 4.01-4.014 4.01h-131.354c-2.218 0-4.019-1.794-4.019-4.01v-31.975c0-2.214 1.801-4.015 4.019-4.015h131.353c2.22 0 4.014 1.801 4.014 4.015l.001 31.975z"></path><path fill="#fff" d="M30.609 19.78c-.03-3.374 2.763-5.016 2.89-5.092-1.582-2.306-4.034-2.621-4.895-2.647-2.059-.217-4.057 1.232-5.106 1.232-1.07 0-2.685-1.211-4.426-1.176-2.24.035-4.336 1.332-5.486 3.346-2.372 4.107-.603 10.142 1.67 13.462 1.137 1.626 2.465 3.441 4.204 3.377 1.701-.07 2.337-1.085 4.39-1.085 2.034 0 2.631 1.085 4.404 1.044 1.826-.029 2.975-1.633 4.072-3.274 1.314-1.863 1.841-3.699 1.862-3.793-.041-.013-3.544-1.35-3.579-5.394zM27.259 9.858c.915-1.144 1.541-2.701 1.367-4.281-1.324.059-2.981.916-3.934 2.035-.844.986-1.598 2.603-1.403 4.123 1.488.111 3.015-.751 3.97-1.877zM55.229 32.05h-2.378l-1.302-4.092h-4.527l-1.241 4.092h-2.315l4.485-13.932h2.77l4.508 13.932zm-4.072-5.809l-1.178-3.638c-.125-.372-.358-1.247-.702-2.625h-.042c-.137.593-.358 1.468-.662 2.625l-1.157 3.638h3.741zM66.763 26.903c0 1.709-.462 3.059-1.385 4.05-.827.883-1.854 1.323-3.08 1.323-1.323 0-2.274-.475-2.853-1.426h-.042v5.292h-2.232v-10.831c0-1.074-.028-2.177-.083-3.307h1.963l.125 1.592h.042c.744-1.2 1.874-1.799 3.39-1.799 1.185 0 2.174.468 2.966 1.405.793.938 1.189 2.172 1.189 3.701zm-2.274.082c0-.978-.22-1.784-.662-2.418-.483-.662-1.131-.992-1.943-.992-.551 0-1.051.184-1.498.548-.448.366-.741.845-.878 1.437-.069.276-.104.503-.104.68v1.675c0 .731.224 1.347.672 1.851s1.03.755 1.746.755c.841 0 1.495-.325 1.963-.972.47-.648.704-1.503.704-2.564zM78.318 26.903c0 1.709-.462 3.059-1.386 4.05-.826.883-1.853 1.323-3.079 1.323-1.323 0-2.274-.475-2.852-1.426h-.042v5.292h-2.232v-10.831c0-1.074-.028-2.177-.083-3.307h1.963l.125 1.592h.042c.743-1.2 1.873-1.799 3.39-1.799 1.184 0 2.173.468 2.967 1.405.79.938 1.187 2.172 1.187 3.701zm-2.274.082c0-.978-.221-1.784-.663-2.418-.483-.662-1.129-.992-1.942-.992-.552 0-1.051.184-1.499.548-.448.366-.74.845-.877 1.437-.068.276-.104.503-.104.68v1.675c0 .731.224 1.347.67 1.851.448.503 1.03.755 1.748.755.841 0 1.495-.325 1.963-.972.469-.648.704-1.503.704-2.564zM91.236 28.143c0 1.185-.411 2.149-1.237 2.894-.908.813-2.171 1.22-3.795 1.22-1.499 0-2.701-.289-3.611-.868l.517-1.86c.98.593 2.055.89 3.227.89.841 0 1.495-.191 1.965-.57.468-.379.701-.888.701-1.522 0-.565-.193-1.042-.579-1.428-.384-.386-1.026-.745-1.922-1.077-2.439-.91-3.658-2.242-3.658-3.995 0-1.145.427-2.084 1.282-2.815.852-.732 1.989-1.097 3.411-1.097 1.268 0 2.321.221 3.162.662l-.558 1.82c-.785-.427-1.673-.641-2.666-.641-.785 0-1.399.194-1.838.579-.372.344-.558.764-.558 1.262 0 .551.213 1.006.64 1.364.372.331 1.047.689 2.027 1.075 1.199.483 2.079 1.047 2.646 1.694.563.642.844 1.45.844 2.413zM98.616 23.679h-2.46v4.878c0 1.241.433 1.86 1.302 1.86.399 0 .73-.035.991-.104l.062 1.695c-.44.164-1.019.247-1.736.247-.881 0-1.57-.269-2.068-.806-.495-.538-.744-1.441-.744-2.708v-5.064h-1.466v-1.675h1.466v-1.839l2.192-.662v2.501h2.46l.001 1.677zM109.716 26.944c0 1.544-.442 2.812-1.323 3.803-.924 1.021-2.151 1.53-3.681 1.53-1.474 0-2.648-.489-3.523-1.467s-1.313-2.212-1.313-3.7c0-1.557.45-2.832 1.354-3.823.901-.992 2.118-1.489 3.647-1.489 1.474 0 2.66.489 3.555 1.468.857.95 1.284 2.176 1.284 3.678zm-2.315.072c0-.927-.198-1.721-.599-2.384-.468-.802-1.137-1.202-2.004-1.202-.897 0-1.579.401-2.047 1.202-.401.664-.599 1.471-.599 2.426 0 .927.198 1.721.599 2.383.483.802 1.157 1.202 2.027 1.202.852 0 1.521-.408 2.004-1.223.411-.675.619-1.478.619-2.404zM116.971 23.967c-.221-.041-.456-.062-.704-.062-.785 0-1.392.296-1.82.89-.372.523-.558 1.185-.558 1.984v5.271h-2.231l.021-6.882c0-1.158-.028-2.212-.084-3.163h1.944l.082 1.922h.062c.236-.661.607-1.192 1.116-1.591.497-.359 1.034-.538 1.613-.538.206 0 .393.015.558.041l.001 2.128zM126.954 26.552c0 .4-.026.737-.082 1.012h-6.696c.026.992.35 1.751.972 2.275.564.468 1.294.702 2.19.702.991 0 1.896-.158 2.709-.475l.35 1.549c-.951.415-2.073.621-3.368.621-1.558 0-2.781-.459-3.67-1.375s-1.333-2.146-1.333-3.689c0-1.515.414-2.776 1.242-3.782.867-1.074 2.038-1.611 3.512-1.611 1.448 0 2.544.537 3.288 1.611.589.853.886 1.908.886 3.162zm-2.129-.579c.015-.662-.131-1.233-.433-1.716-.386-.621-.98-.931-1.779-.931-.73 0-1.323.303-1.777.91-.372.483-.593 1.062-.661 1.736l4.649.001zM44.529 6.682c.238-.142.506-.262.807-.36s.654-.148 1.062-.148c.656 0 1.174.156 1.553.467s.568.731.568 1.259c0 .42-.127.772-.38 1.056s-.578.474-.97.568v.03c.217.035.422.093.615.178s.363.198.508.34c.146.142.261.308.345.498.084.189.127.399.127.63 0 .379-.076.697-.229.955s-.352.467-.599.63c-.246.162-.522.28-.827.35s-.609.107-.914.107c-.326 0-.647-.035-.965-.102s-.612-.179-.884-.335l.274-.843c.176.088.403.173.68.254.277.082.558.121.843.121.467 0 .828-.105 1.081-.314.253-.21.381-.491.381-.843 0-.238-.051-.431-.153-.584-.103-.153-.235-.272-.397-.361-.162-.088-.343-.149-.543-.182s-.398-.051-.594-.051h-.457v-.831h.457c.209 0 .404-.026.584-.082.179-.053.335-.13.467-.228s.236-.216.31-.351c.073-.135.111-.288.111-.457 0-.305-.109-.543-.326-.716s-.508-.26-.873-.26c-.25 0-.501.041-.752.121-.25.082-.474.17-.671.264l-.239-.78zM53.251 13.131l-.081-.568h-.03c-.331.453-.811.68-1.442.68-.224 0-.426-.038-.609-.112s-.342-.176-.477-.305c-.136-.129-.24-.281-.315-.457-.074-.176-.111-.37-.111-.579 0-.616.25-1.078.752-1.386s1.211-.462 2.133-.462v-.091c0-.65-.341-.975-1.024-.975-.487 0-.916.122-1.287.365l-.223-.72c.453-.284 1.018-.426 1.693-.426 1.291 0 1.937.68 1.937 2.041v1.817c0 .508.024.9.071 1.178h-.986zm-.152-2.457c-.612 0-1.069.077-1.368.233s-.449.41-.449.762c0 .258.07.45.211.579s.32.193.536.193c.141 0 .275-.025.404-.076.128-.05.24-.12.337-.208.098-.088.177-.195.239-.32.061-.126.09-.259.09-.401v-.762zM59.457 8.196v.904h-2.052v4.032h-1.096v-4.936h3.148zM65.732 10.603c0 .393-.054.752-.162 1.076-.109.326-.259.603-.452.832-.193.23-.423.41-.69.538-.268.129-.563.194-.889.194-.65 0-1.117-.233-1.402-.7h-.021v2.599h-1.097v-5.321l-.01-.798-.029-.828h.964l.062.782h.021c.365-.588.92-.884 1.666-.884.29 0 .56.061.807.182.247.122.462.293.645.513s.327.484.431.793c.103.309.156.649.156 1.022zm-1.116.041c0-.244-.029-.469-.087-.675s-.142-.382-.253-.528-.247-.261-.406-.345c-.159-.085-.337-.127-.534-.127-.155 0-.308.035-.457.102-.15.067-.28.159-.39.274-.112.115-.201.254-.269.417s-.103.335-.103.518v.823c0 .182.028.352.087.508s.138.291.243.406.23.205.376.269c.146.065.306.096.482.096.414 0 .735-.157.965-.472.229-.316.346-.739.346-1.266zM71.624 8.196l-1.25 3.422c-.297.812-.587 1.477-.868 1.995s-.55.895-.807 1.133c-.379.338-.782.545-1.209.619l-.264-.923c.284-.074.555-.22.812-.437s.463-.487.62-.812l.081-.223-.061-.233-1.788-4.54h1.208l.935 2.752.142.437.153.538h.021l.111-.411.162-.574.833-2.742 1.168-.001zM73.523 10.247h.507c.372 0 .661-.067.863-.203s.305-.302.305-.498c0-.203-.086-.365-.26-.487-.172-.121-.411-.183-.716-.183-.197 0-.395.032-.593.096-.2.065-.384.144-.554.239l-.284-.71c.284-.155.566-.262.849-.319.281-.058.562-.087.847-.087.225 0 .45.022.676.066.225.044.427.118.603.223s.321.242.431.411c.112.17.168.379.168.63 0 .156-.03.293-.092.411-.06.118-.141.223-.243.314s-.215.166-.339.223c-.125.058-.253.101-.38.128v.03c.161.021.319.062.472.122.152.061.288.14.411.239.12.098.219.217.294.355.073.139.11.296.11.472 0 .291-.069.535-.213.731-.141.197-.323.352-.544.467-.219.115-.462.198-.726.249s-.521.076-.771.076c-.305 0-.607-.032-.903-.096-.298-.065-.566-.164-.804-.299l.286-.721c.176.095.376.175.603.239s.459.096.695.096c.372 0 .659-.072.858-.218.198-.146.298-.327.298-.543 0-.142-.032-.262-.101-.36-.068-.098-.163-.178-.284-.239-.122-.061-.264-.104-.427-.127-.161-.024-.339-.036-.528-.036h-.517v-.691zM79.381 8.196v1.746c0 .4-.006.759-.021 1.076l-.051 1.005.021.02.38-.757.382-.757 1.219-2.336h1.421v4.935h-1.036v-1.746c0-.365.01-.731.026-1.096l.055-1.108h-.051c-.114.305-.229.568-.345.793l-.343.691-.626 1.219c-.206.406-.425.823-.654 1.249h-1.421v-4.934h1.044zM88.521 8.196v.904h-1.502v4.032h-1.079v-4.032h-1.493v-.904h4.074zM94.115 10.43l-.01.269-.03.228h-3.29c.015.467.161.828.442 1.081s.652.381 1.112.381c.481 0 .924-.077 1.331-.233l.172.762c-.468.203-1.019.305-1.656.305-.384 0-.73-.06-1.034-.178-.305-.118-.562-.286-.773-.503-.208-.217-.371-.477-.483-.782-.11-.305-.165-.646-.165-1.025s.055-.73.165-1.051c.112-.321.27-.601.472-.838.204-.238.45-.423.736-.559.288-.135.609-.203.961-.203.311 0 .593.055.849.168.253.111.47.27.648.477.18.206.317.454.411.741s.142.609.142.96zm-1.047-.283c0-.386-.092-.699-.278-.939s-.455-.361-.807-.361c-.319 0-.588.121-.811.365s-.352.555-.386.935h2.282zM98.534 8.237c.197-.033.446-.061.751-.082s.616-.03.935-.03c.202 0 .431.013.685.036s.497.077.726.162c.231.085.423.211.579.381s.236.399.236.69c0 .15-.028.284-.082.401-.055.118-.127.222-.219.31s-.197.161-.315.218c-.118.058-.241.101-.371.127l.01.03c.358.061.65.189.873.386s.335.467.335.812c0 .345-.096.62-.284.823-.191.203-.423.356-.701.457s-.571.166-.879.194c-.307.026-.583.041-.826.041-.272 0-.538-.006-.798-.021l-.654-.041v-4.894zm1.056 1.97h.558c.17 0 .331-.012.483-.036.153-.023.286-.061.401-.111.116-.051.204-.118.27-.203.064-.085.096-.187.096-.31 0-.223-.092-.387-.281-.492-.186-.105-.478-.157-.877-.157l-.3.01-.35.03v1.269zm0 2.183l.339.03.321.01c.15 0 .3-.009.456-.03.155-.02.298-.059.427-.116s.231-.134.309-.232c.077-.097.118-.227.118-.388 0-.283-.127-.477-.376-.585-.251-.108-.588-.161-1.017-.161h-.577v1.472z">
</path>
</svg>